<?xml version="1.0" encoding="iso-8859-1"?>
<!-- Generator: Adobe Illustrator 19.0.0, SVG Export Plug-In . SVG Version: 6.00 Build 0)  -->
<svg version="1.1" id="Capa_1" xmlns="http://www.w3.org/2000/svg" xmlns:xlink="http://www.w3.org/1999/xlink" x="0px" y="0px"
	 viewBox="0 0 496 496" style="enable-background:new 0 0 496 496;" xml:space="preserve">
<g>
	<path style="fill:#FFA64D;" d="M296,496h-96c-13.232,0-24-10.768-24-24v-64c0-13.232,10.768-24,24-24h96c13.232,0,24,10.768,24,24
		v64C320,485.232,309.232,496,296,496z"/>
	<polygon style="fill:#FFA64D;" points="216,32 216,96 152,96 152,176 344,176 344,32 	"/>
</g>
<g>
	<path style="fill:#333333;" d="M248,320c-30.88,0-56,25.128-56,56v8h16v-8c0-22.056,17.944-40,40-40s40,17.944,40,40v8h16v-8
		C304,345.128,278.88,320,248,320z"/>
	<path style="fill:#333333;" d="M248,408c-13.232,0-24,10.768-24,24c0,10.416,6.712,19.216,16,22.528V472h16v-17.472
		c9.288-3.312,16-12.112,16-22.528C272,418.768,261.232,408,248,408z M248,440c-4.408,0-8-3.584-8-8s3.592-8,8-8
		c4.408,0,8,3.584,8,8S252.408,440,248,440z"/>
	<path style="fill:#333333;" d="M376,0H204.816L120,80.344V304h256V0z M200,26.6V80h-56.368L200,26.6z M360,288H136V96h80V16h144
		V288z"/>
	<path style="fill:#333333;" d="M464,336c-17.648,0-32,14.352-32,32c0,14.872,10.24,27.288,24,30.864V432h-16v16h16v16h-16v16h16v16
		h16v-97.136c13.76-3.576,24-15.992,24-30.864C496,350.352,481.648,336,464,336z M464,384c-8.824,0-16-7.176-16-16s7.176-16,16-16
		s16,7.176,16,16S472.824,384,464,384z"/>
	<path style="fill:#333333;" d="M32,336c-17.648,0-32,14.352-32,32c0,14.872,10.24,27.288,24,30.864V432H8v16h16v16H8v16h16v16h16
		v-97.136c13.76-3.576,24-15.992,24-30.864C64,350.352,49.648,336,32,336z M32,384c-8.824,0-16-7.176-16-16s7.176-16,16-16
		s16,7.176,16,16S40.824,384,32,384z"/>
	<path style="fill:#333333;" d="M496,232c0-44.112-35.888-80-80-80v16c35.288,0,64,28.712,64,64s-28.712,64-64,64v16
		C460.112,312,496,276.112,496,232z"/>
	<path style="fill:#333333;" d="M464,232c0-26.472-21.528-48-48-48v16c17.648,0,32,14.352,32,32s-14.352,32-32,32v16
		C442.472,280,464,258.472,464,232z"/>
	<path style="fill:#333333;" d="M0,232c0,44.112,35.888,80,80,80v-16c-35.288,0-64-28.712-64-64s28.712-64,64-64v-16
		C35.888,152,0,187.888,0,232z"/>
	<path style="fill:#333333;" d="M32,232c0,26.472,21.528,48,48,48v-16c-17.648,0-32-14.352-32-32s14.352-32,32-32v-16
		C53.528,184,32,205.528,32,232z"/>
	<rect x="184" y="192" style="fill:#333333;" width="160" height="16"/>
	<rect x="152" y="192" style="fill:#333333;" width="16" height="16"/>
	<rect x="152" y="224" style="fill:#333333;" width="192" height="16"/>
	<rect x="328" y="256" style="fill:#333333;" width="16" height="16"/>
	<rect x="152" y="256" style="fill:#333333;" width="160" height="16"/>
	<rect x="336" y="432" style="fill:#333333;" width="16" height="16"/>
	<rect x="368" y="432" style="fill:#333333;" width="16" height="16"/>
	<rect x="144" y="432" style="fill:#333333;" width="16" height="16"/>
	<rect x="112" y="432" style="fill:#333333;" width="16" height="16"/>
</g>
<g>
</g>
<g>
</g>
<g>
</g>
<g>
</g>
<g>
</g>
<g>
</g>
<g>
</g>
<g>
</g>
<g>
</g>
<g>
</g>
<g>
</g>
<g>
</g>
<g>
</g>
<g>
</g>
<g>
</g>
</svg>
